<?xml version="1.0" encoding="UTF-8"?>
<svg xmlns="http://www.w3.org/2000/svg" xmlns:xlink="http://www.w3.org/1999/xlink" width="17px" height="17px" viewBox="0 0 17 17" version="1.1">
<g id="surface1">
<path style=" stroke:none;fill-rule:nonzero;fill:rgb(0%,0%,0%);fill-opacity:1;" d="M 13.8125 6.375 L 12.394531 6.375 L 12.394531 4.605469 C 12.394531 2.453125 10.652344 0.707031 8.5 0.707031 L 7.792969 0.707031 C 5.640625 0.707031 3.894531 2.453125 3.894531 4.605469 L 3.894531 6.375 L 2.480469 6.375 C 2.089844 6.375 1.769531 6.691406 1.769531 7.082031 L 1.769531 15.582031 C 1.769531 15.972656 2.089844 16.292969 2.480469 16.292969 L 13.8125 16.292969 C 14.203125 16.292969 14.519531 15.972656 14.519531 15.582031 L 14.519531 7.082031 C 14.519531 6.691406 14.203125 6.375 13.8125 6.375 Z M 5.3125 4.605469 C 5.3125 3.234375 6.421875 2.125 7.792969 2.125 L 8.5 2.125 C 9.871094 2.125 10.980469 3.234375 10.980469 4.605469 L 10.980469 6.375 L 5.3125 6.375 Z M 13.105469 14.875 L 3.1875 14.875 L 3.1875 7.792969 L 13.105469 7.792969 Z M 13.105469 14.875 "/>
<path style=" stroke:none;fill-rule:nonzero;fill:rgb(0%,0%,0%);fill-opacity:1;" d="M 6.375 11.332031 C 6.375 10.746094 5.898438 10.269531 5.3125 10.269531 C 4.726562 10.269531 4.25 10.746094 4.25 11.332031 C 4.25 11.921875 4.726562 12.394531 5.3125 12.394531 C 5.898438 12.394531 6.375 11.921875 6.375 11.332031 Z M 6.375 11.332031 "/>
<path style=" stroke:none;fill-rule:nonzero;fill:rgb(0%,0%,0%);fill-opacity:1;" d="M 9.207031 11.332031 C 9.207031 10.746094 8.734375 10.269531 8.144531 10.269531 C 7.558594 10.269531 7.082031 10.746094 7.082031 11.332031 C 7.082031 11.921875 7.558594 12.394531 8.144531 12.394531 C 8.734375 12.394531 9.207031 11.921875 9.207031 11.332031 Z M 9.207031 11.332031 "/>
<path style=" stroke:none;fill-rule:nonzero;fill:rgb(0%,0%,0%);fill-opacity:1;" d="M 12.042969 11.332031 C 12.042969 10.746094 11.566406 10.269531 10.980469 10.269531 C 10.390625 10.269531 9.917969 10.746094 9.917969 11.332031 C 9.917969 11.921875 10.390625 12.394531 10.980469 12.394531 C 11.566406 12.394531 12.042969 11.921875 12.042969 11.332031 Z M 12.042969 11.332031 "/>
</g>
</svg>
